<?xml version="1.0"?>
<svg xmlns="http://www.w3.org/2000/svg" xmlns:xlink="http://www.w3.org/1999/xlink" xmlns:svgjs="http://svgjs.com/svgjs" version="1.1" width="512" height="512" x="0" y="0" viewBox="0 0 512 512" style="enable-background:new 0 0 512 512" xml:space="preserve" class=""><g><linearGradient xmlns="http://www.w3.org/2000/svg" id="GradientFill_1" gradientUnits="userSpaceOnUse" x1="256" x2="256.001" y1="512.524" y2=".526"><stop stop-opacity="1" stop-color="#35c6ed" offset="0"/><stop stop-opacity="1" stop-color="#63c5bd" offset="1"/></linearGradient><path xmlns="http://www.w3.org/2000/svg" d="m256 .526c141.383 0 256 114.586 256 255.963s-114.616 256.035-256 256.035-256-114.659-256-256.035 114.617-255.963 256-255.963zm124.45 317.118v-70.789l-103.226 45.92a5.387 5.387 0 0 1 -4.37 0l-103.227-45.92v70.789a198.827 198.827 0 0 0 210.823 0zm-105.412-35.655 143.462-63.81-143.463-63.81-143.46 63.81 143.46 63.81zm-133.32 16.457c0-7.65-7.395-13.718-17.985-15.414v-56.354l-10.733-4.703v60.85c-11.384 1.339-19.5 7.609-19.5 15.621 0 5.71 4.121 10.533 10.612 13.319l-10.436 40.2a5.363 5.363 0 0 0 5.193 6.718h37.479a5.373 5.373 0 0 0 5.2-6.718l-10.435-40.2c6.487-2.786 10.605-7.609 10.605-13.319z" fill="url(#GradientFill_1)" fill-rule="evenodd" data-original="url(#GradientFill_1)"/></g></svg>
