<?xml version="1.0"?>
<svg xmlns="http://www.w3.org/2000/svg" xmlns:xlink="http://www.w3.org/1999/xlink" xmlns:svgjs="http://svgjs.com/svgjs" version="1.1" width="512" height="512" x="0" y="0" viewBox="0 0 512 512" style="enable-background:new 0 0 512 512" xml:space="preserve" class=""><g><linearGradient xmlns="http://www.w3.org/2000/svg" id="linear-gradient" gradientUnits="userSpaceOnUse" x1="256" x2="256" y1=".057" y2="503.667"><stop stop-opacity="1" stop-color="#63c5bd" offset="0"/><stop stop-opacity="1" stop-color="#35c6ed" offset="1"/></linearGradient><linearGradient xmlns="http://www.w3.org/2000/svg" xmlns:xlink="http://www.w3.org/1999/xlink" id="linear-gradient-2" x1="192" x2="192" xlink:href="#linear-gradient" y1=".057" y2="503.667"/><linearGradient xmlns="http://www.w3.org/2000/svg" xmlns:xlink="http://www.w3.org/1999/xlink" id="linear-gradient-3" x1="304" x2="304" xlink:href="#linear-gradient" y1=".057" y2="503.667"/><g xmlns="http://www.w3.org/2000/svg" id="GRADIENT"><path d="m496 152v-120h-73.83691a23.88135 23.88135 0 0 1 -8.91407-1.7168l-28.55468-11.4209a39.7979 39.7979 0 0 0 -14.85743-2.8623h-120.97363a40.01715 40.01715 0 0 0 -20.58008 5.7002l-132.10254 79.26171a29.36538 29.36538 0 0 0 1.12134 50.98194q-3.16149 2.8308-6.1018 5.96533a102.58562 102.58562 0 0 0 1.20117 140.43262l38.37011 39.67578a56.25 56.25 0 0 0 -7.52539 2.22168l-52.69629 19.76074h-54.5498v120h73.83691a23.88135 23.88135 0 0 1 8.91407 1.7168l28.55468 11.4209a39.7979 39.7979 0 0 0 14.85743 2.8623h120.97363a40.01715 40.01715 0 0 0 20.58008-5.7002l132.3272-79.39648a29.11161 29.11161 0 0 0 -26.44532-51.7207l-49.21679 21.093 79.21679-81.93383a102.59675 102.59675 0 0 0 2.44825-139.06543l19.40424-7.27636zm-48-104h32v88h-32zm-384 416h-32v-88h32zm331.90137-90.11035a13.11072 13.11072 0 0 1 11.91015 23.293l-132.32714 79.39743a24.00746 24.00746 0 0 1 -12.34766 3.41992h-120.97363a23.88135 23.88135 0 0 1 -8.91407-1.7168l-28.55468-11.4209a39.7979 39.7979 0 0 0 -14.85743-2.8623h-9.83691v-90.45581l48.86328-18.32446a39.69708 39.69708 0 0 1 17.10254-2.43067c20.57129 1.5791 58.18262 4.458 78.94531 6.00391a15.21361 15.21361 0 0 1 13.04395 9.63574l.1875.46875a14.79911 14.79911 0 0 1 -11.35645 20.10154l-68.07422 11.10547 2.57618 15.791 14.85156-2.42285 48.14062 20.52343a40.19565 40.19565 0 0 0 31.44336-.03027zm36.0957-145.70117a85.41374 85.41374 0 0 1 -23.90039 59.03125l-105.71484 109.34155-52.96094 22.69751a24.1003 24.1003 0 0 1 -18.86524.01855l-24.9082-10.61816 23.71484-3.86918a30.79808 30.79808 0 0 0 23.63575-41.834l-.1875-.46875a31.10136 31.10136 0 0 0 -26.71094-19.64941c-19.14282-1.42529-52.61768-3.9856-73.83545-5.61279l-48.36084-50.00635a86.58733 86.58733 0 0 1 -1.01074-118.3877 77.646 77.646 0 0 1 25.479-18.11645l.772-.33325a79.92148 79.92148 0 0 1 30.82618-6.37842c.23632-.00195.46972-.00293.70605-.00293a82.8541 82.8541 0 0 1 59.31445 25.12207l36.00974 37.23443 35.56152-36.771c21.38184 1.60351 54.437 4.135 73.24805 5.57861q2.18115.167 4.34766.167a55.53191 55.53191 0 0 0 19.59668-3.57031l16.93945-6.352c1.17041 1.1084 2.31641 2.24585 3.415 3.42236a85.50277 85.50277 0 0 1 22.88871 59.35737zm-172.99507-79.14448.1875.46875a31.27085 31.27085 0 0 0 14.09668 15.9541l-17.28618 17.87397-24.50781-25.34182a98.882 98.882 0 0 0 -53.88843-28.53686l94.41577-40.75708 34.333 14.63574-23.71483 3.8692a30.79808 30.79808 0 0 0 -23.6357 41.834zm172.998-10.58819-48.86328 18.32446a39.62133 39.62133 0 0 1 -17.10254 2.43067c-20.57129-1.5791-58.18262-4.458-78.94531-6.00391a15.21361 15.21361 0 0 1 -13.04395-9.63574l-.1875-.46875a14.79911 14.79911 0 0 1 11.35645-20.10154l68.07422-11.10547-2.57618-15.791-14.85156 2.42285-63.87988-27.23246-147.491 63.66846c-1.18921.48193-2.365.99463-3.53222 1.52466l-4.387 1.8938a13.34718 13.34718 0 0 1 -12.15722-23.69922l132.10253-79.2627a24.00746 24.00746 0 0 1 12.34772-3.41992h120.97363a23.88135 23.88135 0 0 1 8.91407 1.7168l28.55468 11.4209a39.7979 39.7979 0 0 0 14.85743 2.8623h9.83691z" fill="url(#linear-gradient)" data-original="url(#linear-gradient)" class=""/><path d="m216 208h-48v32h-32v48h32v32h48v-32h32v-48h-32zm16 48v16h-32v32h-16v-32h-32v-16h32v-32h16v32z" fill="url(#linear-gradient-2)" data-original="url(#linear-gradient-2)"/><path d="m330.7334 236.42285-10.0586-5.0293a23.86222 23.86222 0 0 0 7.3252-17.28222v-4.22266a24 24 0 0 0 -34.73242-21.46582h-.001l-.001.001a23.866 23.866 0 0 0 -13.26558 21.46482v4.22266a23.86222 23.86222 0 0 0 7.3252 17.28222l-10.05762 5.0293a23.86746 23.86746 0 0 0 -13.26758 21.46582v35.05567l16 8v51.05566h48v-51.05566l16-8v-35.05567a23.86832 23.86832 0 0 0 -13.2666-21.46582zm-34.7334-26.53418a7.95653 7.95653 0 0 1 4.42188-7.15527h.002a7.999 7.999 0 0 1 11.57612 7.15527v4.22266a7.95569 7.95569 0 0 1 -4.42285 7.15527l-3.57715 1.78906-3.57812-1.78906a7.95653 7.95653 0 0 1 -4.42188-7.15527zm32 73.167-16 8v44.94433h-16v-44.94434l-16-8v-25.167a7.95569 7.95569 0 0 1 4.42285-7.15527l19.57715-9.78905 19.57812 9.78906a7.95653 7.95653 0 0 1 4.42188 7.15527z" fill="url(#linear-gradient-3)" data-original="url(#linear-gradient-3)"/></g></g></svg>
