<?xml version="1.0"?>
<svg xmlns="http://www.w3.org/2000/svg" xmlns:xlink="http://www.w3.org/1999/xlink" xmlns:svgjs="http://svgjs.com/svgjs" version="1.1" width="512" height="512" x="0" y="0" viewBox="0 0 512 512" style="enable-background:new 0 0 512 512" xml:space="preserve"><g><g xmlns="http://www.w3.org/2000/svg" id="at_sign" data-name="at sign"><rect fill="#35c6ed" height="424.8" rx="212.4" width="424.8" x="43.6" y="43.6" data-original="#1e2e33"/><path d="m350.09 330.87a7.22 7.22 0 0 1 -1.71 10.21c-29.19 20.3-55.26 28.57-87.2 28.57-64.6 0-118.22-43.27-118.22-110.6 0-66.12 53.62-116.7 122.79-116.7 60.63 0 103.29 37.48 103.29 91.1 0 42.66-29.55 80.14-63.38 80.14-14.93 0-25.29-8.84-25.29-22.25a29.17 29.17 0 0 1 .92-6.7c-8.84 16.76-21.94 28.95-42.35 28.95-24.68 0-41.44-18.89-41.44-46.62 0-39.61 28.64-73.74 61.24-73.74 16.76 0 28.34 6.1 34.74 21.64l4.57-16.76h25l-19.8 66.73c-2.74 9.14-3.66 14.32-3.66 18.58 0 7.62 4.88 12.19 12.8 12.19 20.41 0 40.22-31.38 40.22-63.68 0-44.18-35.35-74.65-86.54-74.65-60.93 0-106.64 43.88-106.64 102.38 0 55.45 42.66 95.06 102.68 95.06 28.11 0 52.51-7.94 78.14-25.53a7.19 7.19 0 0 1 9.86 1.68zm-85.25-119.66c-24.07 0-38.4 37.78-38.4 57.28 0 16.76 7.62 27.12 20.11 27.12 24.08 0 37.79-45.4 37.79-64 0-11.87-8.23-20.4-19.5-20.4z" fill="#ffffff" data-original="#ffffff"/></g></g></svg>
