<?xml version="1.0"?>
<svg xmlns="http://www.w3.org/2000/svg" xmlns:xlink="http://www.w3.org/1999/xlink" xmlns:svgjs="http://svgjs.com/svgjs" version="1.1" width="512" height="512" x="0" y="0" viewBox="0 0 64 64" style="enable-background:new 0 0 512 512" xml:space="preserve" class=""><g><linearGradient xmlns="http://www.w3.org/2000/svg" id="SVGID_1_" gradientUnits="userSpaceOnUse" x1="32" x2="32" y1="63" y2="1"><stop stop-opacity="1" stop-color="#35c6ed" offset="0.007722007722007722"/><stop stop-opacity="1" stop-color="#63c5bd" offset="1"/></linearGradient><path xmlns="http://www.w3.org/2000/svg" d="m28 37c-1.654 0-3-1.346-3-3v-1h2v1c0 .552.449 1 1 1s1-.448 1-1v-1h2v1c0 1.654-1.346 3-3 3zm9-3c0 .552-.449 1-1 1s-1-.448-1-1v-1h-2v1c0 1.654 1.346 3 3 3s3-1.346 3-3v-1h-2zm-10 5h10v1c0 2.757-2.243 5-5 5s-5-2.243-5-5zm2.171 2c.413 1.164 1.525 2 2.829 2s2.416-.836 2.829-2zm3.829-40h-2v4h2zm-5.816 4.759-1.531-3.695-1.848.766 1.531 3.695zm-5.083 2.928-2.829-2.828-1.414 1.414 2.829 2.828zm18.094-5.858-1.848-.766-1.531 3.695 1.848.766zm5.947 4.443-1.414-1.414-2.829 2.828 1.414 1.414zm16.732 17.041c.084.385.126.779.126 1.172 0 3.041-2.474 5.515-5.515 5.515-.38 0-.76-.031-1.13-.094l-13.355-2.225v4.319c2.206 0 4 1.794 4 4s-1.794 4-4 4h-.426c-.901 3.171-3.185 5.761-6.163 7.07l.361 1.082c5.947 1.375 10.228 6.709 10.228 12.848v1h-30v-1c0-6.138 4.281-11.473 10.228-12.847l.361-1.083c-2.977-1.309-5.262-3.899-6.163-7.07h-.426c-2.206 0-4-1.794-4-4s1.794-4 4-4v-4.319l-13.357 2.225c-.368.063-.748.094-1.128.094-3.041 0-5.515-2.474-5.515-5.515 0-.394.042-.787.126-1.172l4.198-19.31c.504-2.318 2.593-4.003 4.968-4.003 2.596 0 4.708 2.112 4.708 4.708 0 1.794-.997 3.408-2.602 4.212l-1.313.655 1.179 8.842 6.967-2.787c-.146-.523-.231-1.068-.231-1.63 0-3.309 2.691-6 6-6 .322 0 .641.032.957.082.91-1.255 2.378-2.082 4.043-2.082.691 0 1.373.143 2 .416.627-.273 1.309-.416 2-.416 1.665 0 3.133.827 4.043 2.082.316-.05.635-.082.957-.082 3.309 0 6 2.691 6 6 0 .562-.085 1.107-.231 1.63l6.967 2.787 1.179-8.842-1.312-.655c-1.606-.804-2.603-2.418-2.603-4.212 0-2.596 2.112-4.708 4.708-4.708 2.375 0 4.464 1.685 4.968 4.004zm-28.874-15.313c-.346 0-.679.08-1 .194v9.806c2.206 0 4 1.794 4 4h-2c0-1.103-.897-2-2-2v7.806c.321.114.654.194 1 .194 1.137 0 2.162-.643 2.676-1.677l.375-.756.808.242c.432.13.795.191 1.141.191 2.206 0 4-1.794 4-4s-1.794-4-4-4v-2c1.045 0 2.027.27 2.884.741.705-.738 1.116-1.698 1.116-2.741 0-2.206-1.794-4-4-4-.034 0-.067.006-.1.007.065.321.1.653.1.993 0 .422-.053.842-.157 1.249l-1.938-.498c.063-.244.095-.497.095-.751 0-1.654-1.346-3-3-3zm-13 6c0 1.043.411 2.003 1.116 2.741.857-.471 1.839-.741 2.884-.741v2c-2.206 0-4 1.794-4 4s1.794 4 4 4c.346 0 .709-.061 1.141-.19l.808-.242.375.756c.514 1.033 1.539 1.676 2.676 1.676.346 0 .679-.08 1-.194v-5.806c-1.103 0-2 .897-2 2h-2c0-2.206 1.794-4 4-4v-2c-2.206 0-4-1.794-4-4h2c0 1.103.897 2 2 2v-7.806c-.321-.114-.654-.194-1-.194-1.654 0-3 1.346-3 3 0 .254.032.507.095.751l-1.938.498c-.104-.407-.157-.827-.157-1.249 0-.34.035-.672.1-.993-.033-.001-.066-.007-.1-.007-2.206 0-4 1.794-4 4zm-.666 11.764c-.833-1.03-1.334-2.339-1.334-3.764 0-1.536.585-2.935 1.539-3.998-.161-.179-.311-.365-.449-.56l-7.553 3.021.454 3.405-1.982.264-2.094-15.707 2.588-1.294c.923-.462 1.497-1.391 1.497-2.423 0-1.493-1.215-2.708-2.708-2.708-1.44 0-2.708 1.021-3.014 2.43l-4.198 19.309c-.053.244-.08.495-.08.746 0 1.939 1.577 3.515 3.515 3.515.269 0 .537-.022.797-.066zm.717 12.236c-.03-.33-.051-.662-.051-1v-3c-1.103 0-2 .897-2 2s.897 2 2 2zm13.026 13.08 2.221 1.332.442-2.212c-.2-.055-.403-.104-.608-.148zm-3.689 8.92h3.225l-1.333-4h-.558zm2.354-7.389-.742-.445-.742.445.463 1.389h.558zm-2.819-1.531-2.055-1.027c-.205.044-.408.093-.608.148l.442 2.212zm-10.878 8.92h9.234l1.667-5-.445-1.334-3.203 1.922-.937-4.684c-3.512 1.689-5.96 5.138-6.316 9.096zm19.594-9.096-.937 4.684-3.203-1.922-.445 1.334 1.667 5h9.234c-.356-3.959-2.804-7.408-6.316-9.096zm-4.127-3.205c-.808.19-1.647.301-2.512.301s-1.704-.111-2.512-.301l-.265.794 2.777 1.389 2.777-1.389zm6.488-10.699v-9.35c-.627.222-1.298.35-2 .35-.308 0-.623-.029-.952-.089-.93 1.306-2.419 2.089-4.048 2.089-.691 0-1.373-.143-2-.416-.627.273-1.309.416-2 .416-1.629 0-3.118-.783-4.048-2.089-.329.06-.644.089-.952.089-.702 0-1.373-.128-2-.35v9.35c0 4.963 4.038 9 9 9s9-4.037 9-9zm2-3v3c0 .338-.021.67-.051 1h.051c1.103 0 2-.897 2-2s-.897-2-2-2zm18-9.515c0-.251-.027-.502-.08-.746l-4.198-19.309c-.306-1.409-1.574-2.43-3.014-2.43-1.493 0-2.708 1.215-2.708 2.708 0 1.032.574 1.961 1.498 2.423l2.588 1.294-2.094 15.707-1.982-.264.454-3.405-7.553-3.021c-.137.195-.287.382-.449.56.953 1.063 1.538 2.462 1.538 3.998 0 1.425-.501 2.734-1.334 3.764l13.02 2.169c.262.045.53.067.799.067 1.938 0 3.515-1.576 3.515-3.515z" fill="url(#SVGID_1_)" data-original="url(#SVGID_1_)"/></g></svg>
