<?xml version="1.0"?>
<svg xmlns="http://www.w3.org/2000/svg" xmlns:xlink="http://www.w3.org/1999/xlink" xmlns:svgjs="http://svgjs.com/svgjs" version="1.1" width="512" height="512" x="0" y="0" viewBox="0 0 512 512" style="enable-background:new 0 0 512 512" xml:space="preserve" class=""><g><linearGradient xmlns="http://www.w3.org/2000/svg" id="a" gradientUnits="userSpaceOnUse" x1="256" x2="256" y1="6.878" y2="496.01"><stop stop-opacity="1" stop-color="#63c5bd" offset="0"/><stop stop-opacity="1" stop-color="#35c6ed" offset="1"/></linearGradient><path xmlns="http://www.w3.org/2000/svg" d="m485.575 256.816-59.988-128.816h25.513a10 10 0 1 0 0-20h-151.284a44.94 44.94 0 0 0 -87.632 0h-151.284a10 10 0 0 0 0 20h25.513l-59.988 128.816a10.087 10.087 0 0 0 -6.829 9.548 82.5 82.5 0 0 0 140.932 58.282 81.525 81.525 0 0 0 24.614-58.221 10.155 10.155 0 0 0 -7.434-9.79l-59.908-128.635h94.381a45.085 45.085 0 0 0 33.819 34.1v195.729a71.823 71.823 0 0 0 -61.557 71.007 10.142 10.142 0 0 0 10 10.164h123.114a10.142 10.142 0 0 0 10-10.164 71.823 71.823 0 0 0 -61.557-71.007v-195.729a45.085 45.085 0 0 0 33.816-34.1h94.384l-59.908 128.639a10.078 10.078 0 0 0 -7.434 9.725 82.5 82.5 0 0 0 140.933 58.282 81.683 81.683 0 0 0 24.609-58.291 10.075 10.075 0 0 0 -6.825-9.539zm-383.467 71.7a62.367 62.367 0 0 1 -61.708-52.516h123.9a63.265 63.265 0 0 1 -62.192 52.512zm53.373-72.516h-106.746l53.373-114.487zm151.1 163h-101.164a51.563 51.563 0 0 1 101.166 0zm-50.581-275.769a24.952 24.952 0 1 1 24.952-24.952 24.98 24.98 0 0 1 -24.952 24.952zm153.892-1.718 53.373 114.487h-106.746zm-.521 187a62.368 62.368 0 0 1 -61.713-52.513h123.9a63.267 63.267 0 0 1 -62.187 52.512z" fill="url(#a)" data-original="url(#a)" class=""/></g></svg>
