<?xml version="1.0"?>
<svg xmlns="http://www.w3.org/2000/svg" xmlns:xlink="http://www.w3.org/1999/xlink" xmlns:svgjs="http://svgjs.com/svgjs" version="1.1" width="512" height="512" x="0" y="0" viewBox="0 0 512 512" style="enable-background:new 0 0 512 512" xml:space="preserve" class=""><g><linearGradient xmlns="http://www.w3.org/2000/svg" id="SVGID_1_" gradientTransform="matrix(1 0 0 -1 0 512)" gradientUnits="userSpaceOnUse" x1="124.684" x2="410.376" y1="101.683" y2="387.376"><stop stop-opacity="1" stop-color="#35c6ed" offset="0"/><stop stop-opacity="1" stop-color="#63c5bd" offset="1"/></linearGradient><g xmlns="http://www.w3.org/2000/svg" id="_x30_2_Self_Motivation"><path d="m256 49.262c-22.113 0-40.105 17.992-40.105 40.105v24.117c0 22.113 17.992 40.105 40.105 40.105s40.105-17.992 40.105-40.105v-24.117c0-22.113-17.992-40.105-40.105-40.105zm24.106 64.222c0 13.292-10.812 24.106-24.106 24.106s-24.106-10.812-24.106-24.106v-24.117c0-13.292 10.812-24.106 24.106-24.106s24.106 10.812 24.106 24.106zm61.277 148.457v63.434c0 4.418-3.582 8-8 8s-8-3.582-8-8v-63.434c0-38.258-31.125-69.382-69.382-69.382s-69.382 31.125-69.382 69.382v63.434c0 4.418-3.582 8-8 8s-8-3.582-8-8v-63.434c0-47.082 38.301-85.383 85.383-85.383s85.381 38.301 85.381 85.383zm-48.118-8c-4.418 0-8 3.582-8 8v82.743h-58.531v-82.743c0-4.418-3.582-8-8-8-4.419 0-8 3.582-8 8 .002 22.898-.007-82.848.02 223.433 0 14.68 11.942 26.625 26.621 26.625 7.242 0 13.821-2.907 18.625-7.618 4.805 4.711 11.383 7.618 18.625 7.618 14.68 0 26.621-11.946 26.621-26.625.002-22.923-.007 82.891.02-223.433-.001-4.418-3.582-8-8.001-8zm-18.64 242.059c-5.859 0-10.625-4.766-10.625-10.625v-87.742c0-4.418-3.582-8-8-8s-8 3.582-8 8v87.742c0 5.859-4.766 10.625-10.625 10.625-5.856 0-10.621-4.766-10.621-10.625v-124.657h58.492v124.656c0 5.861-4.766 10.626-10.621 10.626zm177.707-153.539h-17.215l-.004 99.211c0 4.418-3.582 8-8 8s-8-3.582-8-8l.004-107.211c0-4.418 3.582-8 8-8h6.77l-24.281-25.945-24.289 25.95h6.77c4.418 0 8 3.582 8 8v75.739c0 4.418-3.582 8-8 8s-8-3.582-8-8v-67.738h-17.215c-6.991 0-10.614-8.37-5.84-13.469l42.734-45.656c3.159-3.371 8.519-3.377 11.68.004l42.727 45.652c4.778 5.095 1.143 13.463-5.841 13.463zm-301.363-203.453c4.78 5.097 1.144 13.465-5.84 13.465h-17.219l-.004 99.211c0 4.418-3.582 8-8 8s-8-3.582-8-8l.004-107.211c0-4.418 3.582-8 8-8h6.773l-24.286-25.95-24.286 25.95h6.77c4.417 0 8 3.587 8 8v75.739c0 4.418-3.582 8-8 8-4.419 0-8-3.582-8-8v-67.738l-17.215.004c-6.987 0-10.618-8.37-5.84-13.465l42.73-45.66c3.023-3.234 8.656-3.234 11.68 0zm97.031-121.032v-9.976c0-4.418 3.582-8 8-8s8 3.582 8 8v9.976c0 4.418-3.582 8-8 8-4.418.001-8-3.581-8-8zm36 16.536c-3.668-2.465-4.644-7.438-2.18-11.101l5.567-8.285c2.473-3.668 7.438-4.633 11.101-2.176 3.668 2.465 4.644 7.438 2.18 11.101l-5.567 8.285c-2.467 3.663-7.435 4.638-11.101 2.176zm22.863 12.27 9.238-3.77c4.09-1.68 8.758.301 10.425 4.391s-.296 8.761-4.386 10.425l-9.239 3.77c-4.126 1.679-8.776-.334-10.425-4.391-1.667-4.089.297-8.762 4.387-10.425zm-95.531-22.731c-2.465-3.664-1.488-8.637 2.18-11.101 3.664-2.457 8.629-1.492 11.101 2.176l5.567 8.285c2.465 3.664 1.488 8.637-2.18 11.101-3.667 2.462-8.635 1.487-11.101-2.176zm-25.859 23.351c1.66-4.09 6.321-6.07 10.425-4.391l9.238 3.77c4.09 1.664 6.055 6.336 4.386 10.425-1.647 4.051-6.292 6.073-10.425 4.391l-9.238-3.77c-4.089-1.663-6.054-6.335-4.386-10.425z" fill="url(#SVGID_1_)" data-original="url(#SVGID_1_)"/></g></g></svg>
