<?xml version="1.0"?>
<svg xmlns="http://www.w3.org/2000/svg" xmlns:xlink="http://www.w3.org/1999/xlink" xmlns:svgjs="http://svgjs.com/svgjs" version="1.1" width="512" height="512" x="0" y="0" viewBox="0 0 512 512" style="enable-background:new 0 0 512 512" xml:space="preserve" class=""><g><linearGradient xmlns="http://www.w3.org/2000/svg" id="GradientFill_1" gradientUnits="userSpaceOnUse" x1="75.065" x2="436.935" y1="436.935" y2="75.065"><stop stop-opacity="1" stop-color="#35c6ed" offset="0"/><stop stop-opacity="1" stop-color="#63c5bd" offset="1"/></linearGradient><path xmlns="http://www.w3.org/2000/svg" d="m256 0c-141.159 0-256 114.841-256 256s114.841 256 256 256 256-114.841 256-256-114.841-256-256-256zm0 480c-123.514 0-224-100.486-224-224s100.486-224 224-224 224 100.486 224 224-100.486 224-224 224zm90.956-288.212a16 16 0 0 1 0 22.627l-105.8 105.8a16 16 0 0 1 -22.627 0l-53.487-53.487a16 16 0 0 1 22.63-22.628l42.174 42.174 94.483-94.483a16 16 0 0 1 22.627-.003z" fill="url(#GradientFill_1)" data-original="url(#GradientFill_1)"/></g></svg>
